<svg width="22" height="23" viewBox="0 0 22 23" fill="none" xmlns="http://www.w3.org/2000/svg">
<path opacity="0.3" fill-rule="evenodd" clip-rule="evenodd" d="M11 21.0977C16.5228 21.0977 21 16.6205 21 11.0977C21 5.57481 16.5228 1.09766 11 1.09766C5.47715 1.09766 1 5.57481 1 11.0977C1 16.6205 5.47715 21.0977 11 21.0977ZM11 22.0977C17.0751 22.0977 22 17.1728 22 11.0977C22 5.02252 17.0751 0.0976562 11 0.0976562C4.92487 0.0976562 0 5.02252 0 11.0977C0 17.1728 4.92487 22.0977 11 22.0977Z" fill="#1D92FF"/>
<path fill-rule="evenodd" clip-rule="evenodd" d="M16.1082 7.81257C16.4037 8.10281 16.408 8.57767 16.1178 8.87319L9.81569 15.2899C9.67466 15.4334 9.48185 15.5143 9.2806 15.5143C9.07934 15.5143 8.88653 15.4334 8.74551 15.2899L5.88093 12.3732C5.59069 12.0777 5.59496 11.6028 5.89048 11.3126C6.186 11.0223 6.66086 11.0266 6.9511 11.3221L9.2806 13.694L15.0476 7.82213C15.3378 7.52661 15.8127 7.52233 16.1082 7.81257Z" fill="#1D92FF"/>
</svg>
